{"title":"Night Falls on Manhattan 1996 DVDRip XviD titler","uid":8353430,"size":964758121,"categoryP":"video","categoryS":"movies","magnet":"?xt=urn:btih:9aaa092dae8635dafa76955db7b6e153f0c59285&amp;dn=Night+Falls+on+Manhattan+1996+DVDRip+XviD+titler&amp;tr=udp%3A%2F%2Ftracker.openbittorrent.com%3A80&amp;tr=udp%3A%2F%2Fopen.demonii.com%3A1337&amp;tr=udp%3A%2F%2Ftracker.coppersurfer.tk%3A6969&amp;tr=udp%3A%2F%2Fexodus.desync.com%3A6969","seeders":7,"leechers":1,"uploader":"movieZ.freak","files":5,"time":1365417459,"description":"SOURCE: DVD5\n &lt;a href=&quot;\nhttp://www.imdb.com/title/tt0119783/&quot; rel=&quot;nofollow&quot; target=&quot;_NEW&quot;&gt;\nhttp://www.imdb.com/title/tt0119783/&lt;/a&gt;\n\n-SUBTITLES: English, Serbian\n\n-SAMPLE: Yes\n\n-LANGUAGE: English\n\n\nDIRECTOR: Sidney Lumet\n\n\nCAST:\n---------\nAndy Garcia, Ian Holm, Richard Dreyfuss, Lena Olin, James Gandolfini, Colm Feore, Shiek Mahmud-Bey, Paul Guilfoyle, Dominic Chianese\n\n\nPLOT:\n--------\nDetectives Liam Casey (Ian Holm) and Joey Allegretto (James Gandolfini) are conducting a surveillance operation to apprehend Jordan Washington (Shiek Mahmud-Bey), a notorious drug dealer. On a tip from an informant, they venture into a building where Washington is presumed to be hiding. Washington preemptively fires a submachine gun through his front door, seriously wounding Casey. Police backup units arrive and swarm the building, but Washington executes a cunning escape in an NYPD squad car after murdering two police officers. Sean Casey is the newest member of the district attorneys office and he is close to uncovering a police scandal that might involve his father Liam, who works for the NYPD. Sean is chosen to prosecute the case.\n\n\nGeneral\n-----------\nFormat : AVI\nFormat/Info : Audio Video Interleave\nFile size : 900 MiB\nDuration : 1h 48mn\nOverall bit rate : 1 160 Kbps\nWriting application : VirtualDubMod 1.5.10.3\nWriting library : VirtualDubMod build 2550\n\nVideo\n-----------\nFormat : MPEG-4 Visual\nFormat profile : Advanced Simple@L5\nFormat settings, BVOP : 1\nFormat settings, QPel : No\nFormat settings, GMC : No warppoints\nFormat settings, Matrix : Custom\nCodec ID : XVID\nCodec ID/Hint : XviD\nDuration : 1h 48mn\nBit rate : 1 024 Kbps\nWidth : 672 pixels\nHeight : 384 pixels\nDisplay aspect ratio : 16:9\nFrame rate : 25.000 fps\nColor space : YUV\nChroma subsampling : 4:2:0\nBit depth : 8 bits\nScan type : Progressive\nCompression mode : Lossy\nBits/(Pixel*Frame) : 0.159\nStream size : 795 MiB (88%)\nWriting library : XviD 64\n\nAudio\n-----------\nFormat : MPEG Audio\nFormat version : Version 1\nFormat profile : Layer 3\nMode : Joint stereo\nMode extension : MS Stereo\nCodec ID : 55\nCodec ID/Hint : MP3\nDuration : 1h 48mn\nBit rate mode : Constant\nBit rate : 128 Kbps\nChannel(s) : 2 channels\nSampling rate : 48.0 KHz\nCompression mode : Lossy\nStream size : 99.3 MiB (11%)\nAlignment : Aligned on interleaves\nInterleave, duration : 80 ms (2.00 video frames)\nInterleave, preload duration : 504 ms\nWriting library : LAME3.99r\nLanguage : English","torrent":{"xt":"urn:btih:9aaa092dae8635dafa76955db7b6e153f0c59285","amp;dn":"Night+Falls+on+Manhattan+1996+DVDRip+XviD+titler","amp;tr":["udp%3A%2F%2Ftracker.openbittorrent.com%3A80","udp%3A%2F%2Fopen.demonii.com%3A1337","udp%3A%2F%2Ftracker.coppersurfer.tk%3A6969","udp%3A%2F%2Fexodus.desync.com%3A6969"],"infoHash":"9aaa092dae8635dafa76955db7b6e153f0c59285","infoHashBuffer":{"type":"Buffer","data":[154,170,9,45,174,134,53,218,250,118,149,93,183,182,225,83,240,197,146,133]},"announce":[],"urlList":[]}}